<svg width="172" height="26" viewBox="0 0 172 26" fill="none" xmlns="http://www.w3.org/2000/svg">
<path d="M13.6924 18.6582C13.6924 17.7174 13.3604 16.998 12.6963 16.5C12.0322 15.9909 10.8369 15.4596 9.11035 14.9062C7.38379 14.3418 6.01693 13.7884 5.00977 13.2461C2.26497 11.763 0.892578 9.7653 0.892578 7.25293C0.892578 5.94694 1.25781 4.78483 1.98828 3.7666C2.72982 2.7373 3.78678 1.9349 5.15918 1.35938C6.54264 0.783854 8.09212 0.496094 9.80762 0.496094C11.5342 0.496094 13.0726 0.811523 14.4229 1.44238C15.7731 2.06217 16.819 2.94206 17.5605 4.08203C18.3132 5.22201 18.6895 6.51693 18.6895 7.9668H13.709C13.709 6.86003 13.3604 6.00228 12.6631 5.39355C11.9658 4.77376 10.9863 4.46387 9.72461 4.46387C8.50716 4.46387 7.56087 4.72396 6.88574 5.24414C6.21061 5.75326 5.87305 6.42839 5.87305 7.26953C5.87305 8.05534 6.26595 8.71387 7.05176 9.24512C7.84863 9.77637 9.01628 10.2744 10.5547 10.7393C13.388 11.5915 15.4521 12.6484 16.7471 13.9102C18.042 15.1719 18.6895 16.7435 18.6895 18.625C18.6895 20.7168 17.8981 22.3604 16.3154 23.5557C14.7327 24.7399 12.6022 25.332 9.92383 25.332C8.06445 25.332 6.37109 24.9945 4.84375 24.3193C3.31641 23.6331 2.14876 22.6979 1.34082 21.5137C0.543945 20.3294 0.145508 18.957 0.145508 17.3965H5.14258C5.14258 20.0638 6.73633 21.3975 9.92383 21.3975C11.1081 21.3975 12.0322 21.1595 12.6963 20.6836C13.3604 20.1966 13.6924 19.5215 13.6924 18.6582ZM36.6191 14.5244H27.0566V20.999H38.2793V25H22.0762V0.828125H38.2461V4.8623H27.0566V10.623H36.6191V14.5244ZM59.4961 0.828125V16.749C59.4961 19.3942 58.666 21.486 57.0059 23.0244C55.3568 24.5628 53.099 25.332 50.2324 25.332C47.4102 25.332 45.1689 24.585 43.5088 23.0908C41.8486 21.5967 41.002 19.5436 40.9688 16.9316V0.828125H45.9492V16.7822C45.9492 18.3649 46.3255 19.5215 47.0781 20.252C47.8418 20.9714 48.8932 21.3311 50.2324 21.3311C53.0326 21.3311 54.4548 19.859 54.499 16.915V0.828125H59.4961ZM83.2363 25H78.2559L68.5605 9.0957V25H63.5801V0.828125H68.5605L78.2725 16.7656V0.828125H83.2363V25ZM106.711 21.9453C105.814 23.0189 104.547 23.8545 102.909 24.4521C101.271 25.0387 99.4561 25.332 97.4639 25.332C95.3721 25.332 93.5348 24.8783 91.9521 23.9707C90.3805 23.0521 89.1631 21.724 88.2998 19.9863C87.4476 18.2487 87.0104 16.2067 86.9883 13.8604V12.2168C86.9883 9.80404 87.3923 7.71777 88.2002 5.95801C89.0192 4.18717 90.1924 2.83691 91.7197 1.90723C93.2581 0.966471 95.0566 0.496094 97.1152 0.496094C99.9818 0.496094 102.223 1.18229 103.839 2.55469C105.455 3.91602 106.412 5.90267 106.711 8.51465H101.863C101.642 7.13118 101.149 6.11849 100.386 5.47656C99.6331 4.83464 98.5928 4.51367 97.2646 4.51367C95.5713 4.51367 94.2819 5.15007 93.3965 6.42285C92.5111 7.69564 92.0628 9.58822 92.0518 12.1006V13.6445C92.0518 16.179 92.5332 18.0938 93.4961 19.3887C94.459 20.6836 95.8701 21.3311 97.7295 21.3311C99.5999 21.3311 100.934 20.9326 101.73 20.1357V15.9688H97.1982V12.2998H106.711V21.9453ZM129.887 21.9453C128.99 23.0189 127.723 23.8545 126.085 24.4521C124.447 25.0387 122.632 25.332 120.64 25.332C118.548 25.332 116.711 24.8783 115.128 23.9707C113.556 23.0521 112.339 21.724 111.476 19.9863C110.623 18.2487 110.186 16.2067 110.164 13.8604V12.2168C110.164 9.80404 110.568 7.71777 111.376 5.95801C112.195 4.18717 113.368 2.83691 114.896 1.90723C116.434 0.966471 118.232 0.496094 120.291 0.496094C123.158 0.496094 125.399 1.18229 127.015 2.55469C128.631 3.91602 129.588 5.90267 129.887 8.51465H125.039C124.818 7.13118 124.325 6.11849 123.562 5.47656C122.809 4.83464 121.769 4.51367 120.44 4.51367C118.747 4.51367 117.458 5.15007 116.572 6.42285C115.687 7.69564 115.239 9.58822 115.228 12.1006V13.6445C115.228 16.179 115.709 18.0938 116.672 19.3887C117.635 20.6836 119.046 21.3311 120.905 21.3311C122.776 21.3311 124.109 20.9326 124.906 20.1357V15.9688H120.374V12.2998H129.887V21.9453ZM142.271 11.7188L147.302 0.828125H152.747L144.812 16.2344V25H139.748V16.2344L131.812 0.828125H137.274L142.271 11.7188ZM171.656 0.828125V16.749C171.656 19.3942 170.826 21.486 169.166 23.0244C167.517 24.5628 165.259 25.332 162.393 25.332C159.57 25.332 157.329 24.585 155.669 23.0908C154.009 21.5967 153.162 19.5436 153.129 16.9316V0.828125H158.109V16.7822C158.109 18.3649 158.486 19.5215 159.238 20.252C160.002 20.9714 161.053 21.3311 162.393 21.3311C165.193 21.3311 166.615 19.859 166.659 16.915V0.828125H171.656Z" fill="#1890FF"/>
</svg>
